inDegrees=no
num_controls=7
num_derivatives=13
num_iterations=147
num_multipliers=7
num_parameters=0
num_slacks=7
num_states=26
objective=4.940354
objective_accelerations=0.633308
objective_balance=0.104049
objective_effort=0.441687
objective_height=3.732098
objective_ligament=0.029212
solver_duration=2025.008098
status=Solve_Succeeded
success=true
DataType=double
version=3
OpenSimVersion=4.4-2022-07-23-0e9fedc
endheader
time	/jointset/ground_pelvis/pelvis_tilt/value	/jointset/ground_pelvis/pelvis_tx/value	/jointset/ground_pelvis/pelvis_ty/value	/jointset/hip_l/hip_flexion_l/value	/jointset/hip_l/hip_adduction_l/value	/jointset/hip_l/hip_rotation_l/value	/jointset/back/lumbar_extension/value	/jointset/patellofemoral_l/patellar_flexion_l/value	/jointset/knee_l/knee_flexion_l/value	/jointset/knee_l/knee_adduction_l/value	/jointset/knee_l/knee_rotation_l/value	/jointset/ankle_l/ankle_angle_l/value	/jointset/subtalar_l/subtalar_angle_l/value	/jointset/ground_pelvis/pelvis_tilt/speed	/jointset/ground_pelvis/pelvis_tx/speed	/jointset/ground_pelvis/pelvis_ty/speed	/jointset/hip_l/hip_flexion_l/speed	/jointset/hip_l/hip_adduction_l/speed	/jointset/hip_l/hip_rotation_l/speed	/jointset/back/lumbar_extension/speed	/jointset/patellofemoral_l/patellar_flexion_l/speed	/jointset/knee_l/knee_flexion_l/speed	/jointset/knee_l/knee_adduction_l/speed	/jointset/knee_l/knee_rotation_l/speed	/jointset/ankle_l/ankle_angle_l/speed	/jointset/subtalar_l/subtalar_angle_l/speed	/forceset/tau_hip_flexion_l	/forceset/tau_hip_adduction_l	/forceset/tau_hip_rotation_l	/forceset/tau_knee_flexion_l	/forceset/tau_ankle_angle_l	/forceset/tau_subtalar_angle_l	/forceset/tau_lumbar_extension	lambda_cid13_p0	lambda_cid13_p1	lambda_cid13_p2	lambda_cid13_p3	lambda_cid13_p4	lambda_cid13_p5	lambda_cid14_p0	/jointset/ground_pelvis/pelvis_tilt/accel	/jointset/ground_pelvis/pelvis_tx/accel	/jointset/ground_pelvis/pelvis_ty/accel	/jointset/hip_l/hip_flexion_l/accel	/jointset/hip_l/hip_adduction_l/accel	/jointset/hip_l/hip_rotation_l/accel	/jointset/back/lumbar_extension/accel	/jointset/patellofemoral_l/patellar_flexion_l/accel	/jointset/knee_l/knee_flexion_l/accel	/jointset/knee_l/knee_adduction_l/accel	/jointset/knee_l/knee_rotation_l/accel	/jointset/ankle_l/ankle_angle_l/accel	/jointset/subtalar_l/subtalar_angle_l/accel	gamma_cid13_p0	gamma_cid13_p1	gamma_cid13_p2	gamma_cid13_p3	gamma_cid13_p4	gamma_cid13_p5	gamma_cid14_p0
1.5	-0.4083405796140385	-0.04328439225771781	0.7411125950024534	1.308377575271883	-0.3054869523282173	0.02320129699901989	-0.3489896077201422	0.8786193023470332	0.878619302347055	-0.1698662048260585	0.1745283912892779	0.1617671560854032	-0.02122603100175992	0.5984266842038862	0.1732092758549248	0.5921214594148172	-2.444171413088478	-0.0359736099736639	-0.7942377881709068	0.5592982141405479	-2.238196467415278	-2.238196467415273	0.01836572795462636	1.873806692640898e-05	-0.53095124435154	-0.124653208457394	-0.2345960092562135	0.02149476014539116	-0.0234552085143689	-0.2342381156689056	0.08369097852711357	0.04011909747082203	0.217656849509232	-11.06863210261031	-18.0177272767421	5.362298830081241	-2.617076624612704	-606.2893922282403	-55.50848352603904	-16.80223122054792	0.7132553525859644	0.6675669128898474	-0.4313443659738179	-1.637714598352327	0.8038329577884472	-0.4390758860692401	1.848765843913217	-1.534590583124578	-1.534590583124556	-0.008517936248472569	-0.004233509411234131	-0.6681027365567818	0.8502525020989974	4.387060995087672e-07	6.948728846931939e-07	-2.540434069123393e-06	-2.516886025556136e-07	4.956773687059649e-07	4.650812329935051e-08	4.48521643153641e-07
1.51	-0.4023208769500357	-0.04151900955125477	0.7470110413198843	1.283856292856806	-0.3058075625217794	0.01523967566771628	-0.343305452351051	0.8561631693153817	0.8561631693154331	-0.1696868895195194	0.1745286411926514	0.1564247466157984	-0.02243146126861656	0.6054301890806307	0.1798513318181936	0.5874436450190103	-2.459751895381606	-0.02811853517622815	-0.7979885759801336	0.5774674712096209	-2.252714413138284	-2.252714413138289	0.01748354305170433	2.577463281153461e-05	-0.5374273581981566	-0.1164059996795934	-0.227039463967946	0.02124226528093167	-0.02351227308841368	-0.2317252178280526	0.08556104682710101	0.0400650856889591	0.2116214942182981	-10.19257207339709	-18.26410309261581	5.534580803183482	-2.894459048558111	-601.0911110485274	-55.79150283713183	-18.21195712191598	0.6813983316241019	0.6600851683710426	-0.5045146025500028	-1.468176522489557	0.7811381888986403	-0.3279587402445094	1.791197368192633	-1.363136352610235	-1.363136352611746	-0.1300771580665514	0.002903447632427147	-0.6218714907164103	0.8161551547473083	4.723480339538765e-07	8.325278591727819e-07	-2.650220986906219e-06	-2.496724387239482e-07	5.289948739774021e-07	1.449815399280148e-07	4.780497484181261e-07
1.52	-0.3962336391819851	-0.03968769423909391	0.7528590065681241	1.259189213323258	-0.3060486632777323	0.007243570755942515	-0.3374415660653116	0.8335713088693554	0.8335713088694373	-0.1695167977401585	0.1745289077032938	0.1510206748513269	-0.02355357942986985	0.6119337050135928	0.186395796994491	0.5820252455765782	-2.47333083678259	-0.02007172245169216	-0.8011345042651654	0.5952443974702255	-2.265341950290155	-2.265341950290169	0.01652102251868298	2.205952045754903e-05	-0.5432837033248658	-0.1079907873367239	-0.2194829186796793	0.02098977041647309	-0.02356933766243675	-0.2292123199872016	0.08743111512708879	0.04001107390709727	0.2055861389273626	-9.321690566872949	-18.51202061503179	5.709907501668964	-3.184623685407507	-595.9951261900468	-56.16692525296644	-19.62123941412831	0.6132575638294816	0.6480487554955472	-0.5794613752988427	-1.237406419923154	0.8421805432084902	-0.3181039812302566	1.770299682219516	-1.156508868897559	-1.156508868897568	-0.02458506226833963	-0.006383845059059482	-0.5441489925753202	0.8838532151127961	5.09871877540007e-07	9.669321764292651e-07	-2.776531049813705e-06	-2.5292273911582e-07	5.695552597897241e-07	2.470228329220505e-07	5.092359360235767e-07
1.53	-0.3900838607270216	-0.03779149080762645	0.7586491545825871	1.234396296027692	-0.3062086186394112	-0.0007809407498218737	-0.3314021523425733	0.8108626086283562	0.8108626086284418	-0.1693570999763785	0.1745291566479188	0.1455611046747196	-0.02459103067018299	0.6179309510079785	0.1928210876724249	0.5758853121092617	-2.484902387257962	-0.01189702326742375	-0.8036671065917028	0.6125528849349712	-2.276066691197947	-2.276066691198019	0.01540724216932994	2.292217405484601e-05	-0.548519662372755	-0.09948092557235104	-0.2117754158198678	0.02051545775618456	-0.02358447242052703	-0.2268514977650767	0.08944635914523189	0.03976759651016093	0.1993886391869904	-8.413444102538365	-18.6776775223424	5.864672127949262	-3.44096439702274	-590.9391915468019	-56.44339563036829	-21.02613599054753	0.5793612670722676	0.6361456791005579	-0.6489873844207421	-1.064420448394197	0.8087859012252153	-0.2052333785587176	1.698303957225487	-0.9808576594816538	-0.9808576594901168	-0.1563928743263934	0.003209453406609984	-0.4967106093227003	0.8374977022313113	5.515202495884727e-07	1.097882670386199e-06	-2.92039695441614e-06	-2.617686577451996e-07	6.178112061767362e-07	3.528549945542932e-07	5.421838361163029e-07
1.54	-0.383876829182149	-0.035831759178348	0.7643743576519826	1.209498185009962	-0.3062860927502102	-0.008827657282888616	-0.3251922176094627	0.7880565807867265	0.7880565807868161	-0.1692088636867018	0.1745293918456476	0.1400524966579481	-0.02554279428382605	0.6233843229955307	0.1991014365566906	0.5690362565630495	-2.494369581215329	-0.003575472275588085	-0.8055755097259697	0.6293485995446524	-2.284807470416202	-2.28480747041633	0.0142287276976732	1.93101411510583e-05	-0.5530912713577235	-0.09085326200270652	-0.2040679129600515	0.02004114509590008	-0.02359960717861596	-0.2244906755429505	0.09146160316337613	0.03952411911322944	0.1931911394466215	-7.509022568857884	-18.84597325402156	6.023639004663679	-3.717503352749724	-585.9706205035842	-56.82035398185463	-22.42351658445111	0.5044827624627817	0.6190603967619251	-0.7212857910780275	-0.8165351163219734	0.8715509047219433	-0.1932641427761649	1.667745111206639	-0.7597165309900683	-0.7597165309900555	-0.03753188672908011	-0.007278782359282125	-0.411278979991179	0.9074135761671366	5.928375331462649e-07	1.23424958765736e-06	-3.058753632742855e-06	-2.703301363136253e-07	6.690825505255131e-07	4.643808331957271e-07	5.745427143699137e-07
1.55	-0.3776179852618316	-0.03381001844495868	0.7700276126008456	1.184515842102041	-0.3062799142648545	-0.01689031503107751	-0.3188171666510118	0.7651730012170542	0.7651730012170461	-0.1690731241143923	0.1745296232850628	0.1345014307312835	-0.02640802609922715	0.6282857108559757	0.2052151460985482	0.5615021414140406	-2.501731647717286	0.004824007766138836	-0.8068487703193938	0.6455566666250544	-2.291561743940317	-2.291561743940503	0.01290661506220729	2.129640015174116e-05	-0.5570045877146392	-0.08218417355866932	-0.1962365415692336	0.01929213178796525	-0.02358271418032169	-0.2223741930256737	0.09368865580463423	0.03908744194878559	0.1868627625918706	-6.552051516228318	-18.93414738836645	6.163643493337648	-3.966882704353718	-581.1390006950792	-57.1099796450082	-23.81083769165789	0.4682211836123726	0.6027350018813055	-0.7862122976629451	-0.6408549885962901	0.8263988307004754	-0.07770080776466892	1.581598678379285	-0.5814025910537121	-0.5814025910625488	-0.1813453540433198	0.003748118595163373	-0.3637420585480585	0.8481452767061437	6.337733451821944e-07	1.376857166573172e-06	-3.190762724273631e-06	-2.785638904639952e-07	7.238281577432798e-07	5.824667779564461e-07	6.062229370262827e-07
1.56	-0.371313076585755	-0.03172809886235406	0.7756021788140487	1.159470916014808	-0.3061892905237214	-0.02496237414322753	-0.3122831827873724	0.7422322549465548	0.7422322549464482	-0.1689509645488545	0.1745298367447797	0.1289147548220486	-0.02718626927055106	0.6325972741475017	0.2111372063997526	0.553298509431019	-2.50688621707779	0.0133135788799617	-0.807455782518383	0.6611351805823489	-2.296240810581693	-2.296240810581939	0.01151272634322316	1.571420176904391e-05	-0.5602132678718061	-0.07345553318726672	-0.188405170178413	0.0185431184800327	-0.02356582118204086	-0.220257710508394	0.09591570844589324	0.0386507647843445	0.180534385737121	-5.596657024995793	-19.02615598622902	6.308957018230587	-4.248068471987979	-576.3671078187239	-57.50674162359216	-25.18638901291337	0.3865178486789667	0.5807305486313019	-0.8551891578805404	-0.3750356880315152	0.8895691191411355	-0.06001446388916743	1.541834486585189	-0.3446751544425627	-0.3446751544425591	-0.05188710343272419	-0.008792473835967299	-0.270351740041369	0.9193239616402173	6.732415536596251e-07	1.514226612879801e-06	-3.314522968329398e-06	-2.867116029498345e-07	7.799021762038728e-07	7.012440036481271e-07	6.360664093049792e-07
1.57	-0.3649679975806688	-0.0295880126267606	0.781091466928259	1.134385390426266	-0.3060135762453415	-0.03303726904492401	-0.3055968383443556	0.7192549774769482	0.7192549774769088	-0.1688433407040865	0.1745300134895275	0.1232993930509409	-0.02787721212112047	0.6363132663068942	0.2168382951905225	0.5444545021393915	-2.509833980548293	0.02183453425955371	-0.8074193331277495	0.6760090080428989	-2.29885459416469	-2.298854594164934	0.01000878843122898	1.812883672101779e-05	-0.5627397056987841	-0.06473152095605904	-0.1805669833015304	0.01759113795706057	-0.02351319720435887	-0.2183226298804631	0.09813212583867416	0.03800367780808751	0.1741589937359194	-4.669209466562856	-19.0156976480243	6.430858455615727	-4.406952304298724	-571.8454439407503	-57.77103417663952	-26.54913015112131	0.3484251629588384	0.5584763388650807	-0.9145240299902554	-0.1968142494224948	0.8344720597278612	0.05167636125739587	1.441451879069606	-0.1658524789242375	-0.165852478923946	-0.2000321276111967	0.005241859965473313	-0.2258574152762777	0.8493011929599895	7.108752576889324e-07	1.645048393424952e-06	-3.427972153041405e-06	-2.947517633550103e-07	8.376367087179987e-07	8.208853305035104e-07	6.636139436115853e-07
1.58	-0.3585889016013113	-0.02739217984434639	0.786489211466516	1.109281953688446	-0.3057524297506938	-0.0411085591085704	-0.2987654966260775	0.6962623376677727	0.6962623376678004	-0.168750833236944	0.1745303110661846	0.1176623533793133	-0.02848084258155802	0.6394006690018645	0.2222865157639035	0.5349897942403167	-2.510468446933309	0.03040002213353074	-0.8067348149084047	0.6901346356346367	-2.299313278495529	-2.29931327849577	0.008489450818098078	3.988058386062846e-05	-0.5645488479757729	-0.05599305516089341	-0.1727287964246471	0.01663915743408885	-0.02346057322668372	-0.216387549252531	0.1003485432314553	0.03735659083183106	0.1677836017347181	-3.74050235480623	-19.0104360039886	6.559274945818466	-4.613135381685963	-567.3477659917448	-58.14728359513801	-27.89886674002986	0.2607999557945285	0.5301569051535274	-0.9793292793700423	0.08762372906578088	0.8984756180181421	0.06959930185305954	1.392194512822764	0.08634469598890897	0.08634469598891072	-0.05496704366007121	-0.004925051398451896	-0.1268926300435557	0.9222146744318115	7.346694697323269e-07	1.791085564601325e-06	-3.511596594057841e-06	-2.842457877079016e-07	8.680322352381574e-07	9.433417552459644e-07	6.884910315108287e-07
